<?xml version="1.0" encoding="UTF-8"?>
<svg id="_Слой_1" data-name="Слой 1" xmlns="http://www.w3.org/2000/svg" viewBox="0 0 887 887">
  <defs>
    <style>
      .cls-1 {
        fill: #4fc9d0;
      }

      .cls-2 {
        fill: #2c293a;
      }

      .cls-3 {
        fill: #e7e7e7;
      }

      .cls-4 {
        fill: none;
        stroke: #2c293a;
        stroke-miterlimit: 10;
        stroke-width: 11px;
      }

      .cls-5 {
        fill: #09337f;
      }
    </style>
  </defs>
  <circle class="cls-1" cx="400.94" cy="485.55" r="382.83"/>
  <path class="cls-2" d="m621.71,333.4c1.11-75.56,0-102.42,0-142.63,0-19.56-13.22-20.42-13.22-20.42h-244.55v158.24c-1.2,5.98-3.51,10.27-5.11,12.76-1.81,2.82-6.39,9.95-15.29,13.04-3.38,1.17-6.36,1.41-8.29,1.42h-156.77v420.26c0,16.36,12.76,20.42,12.76,20.42h413.46c18.72,0,17.02-11.99,17.02-11.99v-217.71l25.1-39.98v252.17c-18.59,15.6-38.67,29.45-60.02,41.33H215.05l-.56-.33s-.06-.04-.08-.05l-15.9-9.39s0,0,0,0l-42.99-25.4v-478.67l157.39-158.23,269.68.85.52-.33c22.53,12.21,43.69,26.61,63.21,42.94l.5.44v117.41c-8.37,13.44-16.73,26.87-25.1,40.31-.06-3.37-.11-9.22,0-16.45Z"/>
  <rect class="cls-3" x="244.41" y="410.68" width="313.07" height="24.67"/>
  <path class="cls-3" d="m557.4,456.62c-4.53,8.23-9.06,16.44-13.59,24.67H244.41v-24.67h312.99Z"/>
  <path class="cls-3" d="m532.57,501.71c-4.53,8.23-9.05,16.44-13.59,24.67H244.41v-24.67h288.17Z"/>
  <path class="cls-3" d="m507.75,546.8c-4.53,8.23-9.05,16.44-13.59,24.67h-249.76v-24.67h263.34Z"/>
  <path class="cls-2" d="m679.13,292.43s-220.63,371.58-182.06,397.29c35.73,23.82,236.5-365.82,236.5-365.82,0,0,11.84-19.79-22.97-34.88-25.52-11.06-31.48,3.4-31.48,3.4Z"/>
  <circle class="cls-5" cx="537.06" cy="760.09" r="31.48"/>
  <path class="cls-3" d="m254.75,775.91c28.92-22.33,45.92-55.09,50.08-91.12.39-3.34-5.23-4.1-5.89-.8-3.18,15.91-5.99,31.92-7.79,48.05-1.1,9.87-2.95,21.1.94,30.56,1.79,4.36,4.58,13.32,9.95,14.43,4.42.91,7.97-3.23,10.42-6.3,6.34-7.96,11.54-16.93,16.63-25.73l-5.59-1.51c.37,5.21.87,10.43,1.57,15.61s1.2,13.66,7.7,14.47c7.02.87,15.66-3.89,21.02-7.96,6.72-5.11,11.57-11.95,14.36-19.9h-5.79c2.35,13.81,10.01,24.73,23.41,29.59,12.24,4.44,27.68,4.11,40.09.39,3.69-1.11,2.12-6.9-1.6-5.79-10.57,3.17-23.35,3.53-33.98.55-12.95-3.64-19.95-13.43-22.14-26.33-.54-3.16-4.9-2.52-5.79,0-2.15,6.13-5.85,11.49-10.83,15.67-3.04,2.55-15.46,11.22-19.11,6.12-1.97-2.76-1.71-9.4-2.05-12.61s-.64-6.52-.87-9.79c-.2-2.85-4.02-4.23-5.59-1.51-4.17,7.2-8.47,14.37-13.26,21.18-1.23,1.75-2.46,3.54-3.91,5.12-.65.7-1.84,2.22-2.62,2.47-1.68.53-.74.03-1.83-1.03-1.82-1.77-3.34-6.25-4.35-8.6-1.13-2.62-1.87-5.2-2.04-8.06-.49-8.27.71-16.81,1.72-25,1.76-14.25,4.29-28.4,7.11-42.47l-5.89-.8c-3.89,33.68-20.07,65.06-47.11,85.94-3.01,2.33-.03,7.54,3.03,5.18h0Z"/>
  <path class="cls-4" d="m783.77,485.54c0,117.83-53.23,223.23-136.96,293.44-18.59,15.6-38.67,29.45-60.02,41.33-55.03,30.62-118.4,48.06-185.85,48.06s-130.82-17.44-185.85-48.06c-.2-.11-.4-.22-.6-.33-.03-.02-.06-.04-.08-.05-5.39-3.02-10.68-6.15-15.9-9.39,0,0,0,0,0,0-15.07-9.41-29.43-19.84-42.99-31.19C71.53,709.13,18.11,603.58,18.11,485.54c0-211.43,171.4-382.83,382.83-382.83,65.95,0,128,16.68,182.16,46.04,22.53,12.21,43.69,26.61,63.21,42.94,84.01,70.21,137.46,175.79,137.46,293.85Z"/>
  <path class="cls-5" d="m456.81,85.69l-44.64-4.06,17.11-63.01,44.65,4.06-3.75,13.65-28.64-2.6-3.14,11.82,23.66,2.15-3.75,13.65-23.66-2.15-2.73,10.24,28.64,2.6-3.75,13.65Z"/>
  <path class="cls-5" d="m504.55,95.7l3.95-13.46-14.46-3.65-7.67,12.52-16.54-4.17,37.97-56.74,28.58,7.2-15.37,62.43-16.45-4.15Zm8.35-48.09l-12.39,20.27,11.34,2.86,6.5-21.75-5.46-1.38Z"/>
  <path class="cls-5" d="m576.71,122.03l-43.27-18.51,7.78-11.83.08.04,46.1-19.91-26.03-11.13,7.78-11.83,43.35,18.54-7.78,11.83-46.1,19.91,25.86,11.06-7.78,11.83Z"/>
  <path class="cls-5" d="m640.73,110.66l24.8-11.1,13.61,8.55-44.33,18.87-16.86,18.62-13.69-8.6,16.86-18.62,9.55-40.72,14.44,9.07-6.12,22.84,1.74,1.09Z"/>
  <path class="cls-5" d="m740.96,164.49c4.76,4.84,7.08,9.32,6.97,13.44-.11,3.12-1.4,5.88-3.86,8.3-.85.84-1.82,1.63-2.92,2.38l-5.84,4c-3.26,2.21-6.35,3.52-9.28,3.94-2.93.42-5.51.22-7.73-.6l-12.89,24.08-12.65-12.86,11.86-22.2-3.88-3.95-19.69,14.24-12.03-12.22,53.78-37.02,18.16,18.46Zm-13.87,5.76l-4.7-4.77-12.7,9.24,4.38,4.46c2.21,2.25,4.34,3.33,6.38,3.24,2.04-.09,3.95-1.01,5.74-2.76,3.44-3.38,3.74-6.52.9-9.4Z"/>
  <path class="cls-5" d="m740.23,266.71l-26.07-36.47,58.9-28.17,26.07,36.47-12.79,6.07-16.72-23.39-11,5.34,13.82,19.32-12.79,6.07-13.82-19.32-9.54,4.62,16.72,23.39-12.79,6.07Z"/>
  <path class="cls-5" d="m780.59,299.23l-4.77-9.5-19.04,5.66-7.21-14.37,62.56-18.69,12.21,24.34c3.02,6.01,3.78,10.99,2.3,14.93-1.19,2.93-3.44,5.22-6.74,6.88-1.12.56-2.34,1.04-3.67,1.44l-9.82,2.93c-4.82,1.42-9.63.9-14.42-1.56-4.8-2.46-8.6-6.48-11.4-12.07Zm28.78-11.34l-3.6-7.18-16.41,4.93,3.56,7.1c2.19,4.36,5.4,5.92,9.63,4.66l3.55-1.08c.53-.13,1.2-.4,2-.8.8-.4,1.48-1.24,2.03-2.52.56-1.28.3-2.98-.77-5.11Z"/>
  <path class="cls-5" d="m849.83,352.01c4.29,13.69.83,22.29-10.36,25.79-1.87.59-3.95,1.02-6.24,1.3l-17.98,2.35c-8.32,1.11-15.1-.01-20.33-3.37-5.23-3.35-9.13-9.15-11.71-17.39-2.58-8.24-2.47-14.57.32-19,1.92-3.03,5.18-5.27,9.78-6.71,2.05-.64,4.36-1.12,6.95-1.43l17.98-2.35c16.06-2.1,26.59,4.84,31.59,20.8Zm-52.69,6.86c.89,2.84,2.34,4.88,4.35,6.12,2.01,1.24,5.11,1.58,9.3,1.02l17.27-2.22c1.19-.18,2.24-.42,3.15-.7,4.6-1.44,6.17-4.49,4.72-9.15-1.95-5.82-6.36-8.27-13.25-7.36l-17.27,2.22c-1.49.22-3,.57-4.54,1.05-3.98,1.25-5.22,4.25-3.72,9.03Z"/>
  <path class="cls-5" d="m865.24,429.38c.95,6.72.14,11.7-2.4,14.95-1.94,2.44-4.62,3.9-8.04,4.38-1.18.17-2.43.22-3.76.17l-7.07-.27c-3.93-.17-7.2-.96-9.8-2.36-2.6-1.41-4.56-3.1-5.86-5.08l-24.69,11.68-2.52-17.86,22.74-10.78-.77-5.48-24.3-.28-2.39-16.98,65.25,2.26,3.61,25.64Zm-14.58-3.63l-.93-6.63-15.71-.13.87,6.19c.44,3.12,1.51,5.26,3.2,6.4,1.69,1.14,3.78,1.54,6.26,1.19,4.77-.67,6.88-3.01,6.32-7.02Z"/>
  <path class="cls-5" d="m853.68,530.1l.49-21.96-50.16-9.96.36-16.16,50.16,9.96.49-22.05,13.87,2.81-1.34,60.17-13.87-2.81Z"/>
</svg>