<?xml version="1.0" encoding="UTF-8"?>
<svg xmlns="http://www.w3.org/2000/svg" viewBox="0 0 2348 511">
  <defs>
    <style>
      .cls-1 {
        fill: #fff;
      }

      .cls-2 {
        fill: none;
        stroke: #2c293a;
        stroke-miterlimit: 10;
        stroke-width: 10px;
      }

      .cls-3 {
        fill: #4fc9d0;
      }

      .cls-4 {
        fill: #2c293a;
      }

      .cls-5 {
        fill: #e7e7e7;
      }

      .cls-6 {
        fill: #09337f;
      }
    </style>
  </defs>
  <g id="_Слой_1" data-name="Слой 1">
    <g>
      <path class="cls-1" d="m694.95,354.67h-133.03l33.65-190.8h133.03l-7.42,41.34h-85.33l-6.1,35.77h70.49l-7.42,41.34h-70.49l-5.3,31h85.33l-7.42,41.34Z"/>
      <path class="cls-1" d="m819.77,354.67l1.59-41.6h-44.25l-12.98,41.6h-50.62l68.1-190.8h87.45l1.06,190.8h-50.35Zm-10.87-144.42l-20.93,67.31h34.71l2.92-67.31h-16.7Z"/>
      <path class="cls-1" d="m1028.05,354.67h-139.65l7.42-41.34h.27l102.55-108.12h-84l7.42-41.34h139.92l-7.42,41.34-102.55,108.12h83.47l-7.42,41.34Z"/>
      <path class="cls-1" d="m1151.28,230.91l44.79-67.04h47.7l-81.62,117.39-12.99,73.41h-47.96l12.99-73.41-40.28-117.39h50.62l20.67,67.04h6.09Z"/>
      <path class="cls-1" d="m1403.82,163.87c20.14,0,34.45,4.42,42.93,13.25,6.36,6.72,9.54,15.2,9.54,25.44,0,3.54-.36,7.25-1.06,11.13l-3.71,20.67c-2.12,11.49-5.79,20.76-11,27.82-5.21,7.07-11,12.1-17.36,15.11l24.12,77.38h-53.53l-22.26-71.29h-16.43l-10.87,71.29h-50.88l33.66-190.8h76.85Zm-16.7,41.34h-19.88l-6.89,46.11h18.55c9.36,0,16.07-2.25,20.14-6.76,4.06-4.5,6.1-10.47,6.1-17.89,0-14.31-6.01-21.46-18.02-21.46Z"/>
      <path class="cls-1" d="m1600.18,354.67h-133.03l33.66-190.8h133.03l-7.42,41.34h-85.33l-6.09,35.77h70.49l-7.42,41.34h-70.49l-5.3,31h85.33l-7.42,41.34Z"/>
      <path class="cls-1" d="m1720.22,296.63h-31.54l-10.33,58.04h-47.7l33.66-190.8h80.82c19.96,0,34.19,4.6,42.67,13.78,6.18,7.07,9.28,16.08,9.28,27.03,0,3.71-.36,7.6-1.06,11.66l-5.3,29.95c-2.65,14.67-10.43,26.72-23.32,36.17-12.9,9.45-28.62,14.18-47.17,14.18Zm8.21-91.42h-23.85l-8.75,50.08h23.58c14.48,0,22.88-6.45,25.18-19.35l1.85-10.86c.35-1.59.53-3.71.53-6.36s-1.33-5.56-3.98-8.75c-2.65-3.18-7.51-4.77-14.57-4.77Z"/>
      <path class="cls-1" d="m1902.8,162.01c42.57,0,63.87,17.4,63.87,52.2,0,5.83-.62,12.1-1.86,18.82l-9.27,53c-4.24,24.56-13.43,42.76-27.56,54.59-14.14,11.84-34.01,17.75-59.62,17.75s-43.46-5.92-53.53-17.75c-6.89-8.12-10.33-19.34-10.33-33.66,0-6.36.7-13.34,2.12-20.93l9.28-53c8.3-47.34,37.27-71.02,86.92-71.02Zm-27.29,155.29c8.83,0,15.9-2.29,21.2-6.89,5.3-4.59,9.01-13.07,11.13-25.44l9.01-50.88c.53-3.53.79-6.71.79-9.54,0-14.31-7.25-21.46-21.73-21.46-18.2.36-29.06,10.69-32.6,31l-9.01,50.88c-.71,4.42-1.06,9.01-1.06,13.78,0,12.37,7.42,18.55,22.26,18.55Z"/>
      <path class="cls-1" d="m2086.18,163.87c20.14,0,34.45,4.42,42.93,13.25,6.36,6.72,9.54,15.2,9.54,25.44,0,3.54-.36,7.25-1.06,11.13l-3.71,20.67c-2.12,11.49-5.79,20.76-11,27.82-5.21,7.07-11,12.1-17.36,15.11l24.12,77.38h-53.53l-22.26-71.29h-16.43l-10.87,71.29h-50.88l33.66-190.8h76.85Zm-16.7,41.34h-19.88l-6.89,46.11h18.55c9.36,0,16.07-2.25,20.14-6.76,4.06-4.5,6.1-10.47,6.1-17.89,0-14.31-6.01-21.46-18.02-21.46Z"/>
      <path class="cls-1" d="m2335.81,205.21h-65.19l-26.24,149.46h-47.96l26.24-149.46h-65.46l7.42-41.34h178.61l-7.42,41.34Z"/>
    </g>
  </g>
  <g id="_Слой_4" data-name="Слой 4">
    <g>
      <circle class="cls-3" cx="234.01" cy="278.12" r="226.6"/>
      <path class="cls-4" d="m379.54,451.85v-149.31l-14.86,23.67v128.87s1.01,7.1-10.07,7.1H109.88s-7.55-2.4-7.55-12.09v-248.76h92.8c1.14-.01,2.91-.15,4.91-.85,5.27-1.83,7.98-6.04,9.05-7.71.95-1.47,2.32-4.01,3.02-7.55v-93.66h144.76s7.82.5,7.82,12.09c0,23.8.66,39.7,0,84.43-.06,4.28-.03,7.74,0,9.74,4.95-7.95,9.9-15.91,14.86-23.86v-69.49l-32.48-29.01-5.54,3.52-159.63-.5-93.16,93.66v283.33l35.25,20.82h222.88l30.91-18.13,1.76-6.29Z"/>
      <rect class="cls-5" x="141.36" y="233.81" width="185.31" height="14.6"/>
      <path class="cls-5" d="m326.62,261c-2.68,4.87-5.36,9.73-8.04,14.6h-177.22v-14.6h185.27Z"/>
      <path class="cls-5" d="m311.93,287.69c-2.68,4.87-5.36,9.73-8.04,14.6h-162.53v-14.6h170.57Z"/>
      <path class="cls-5" d="m297.23,314.38c-2.68,4.87-5.36,9.73-8.04,14.6h-147.84v-14.6h155.88Z"/>
      <path class="cls-4" d="m398.68,163.81s-130.59,219.95-107.76,235.17c21.15,14.1,139.99-216.53,139.99-216.53,0,0,7.01-11.72-13.6-20.65-15.11-6.55-18.63,2.01-18.63,2.01Z"/>
      <circle class="cls-6" cx="314.58" cy="440.63" r="18.63"/>
      <path class="cls-5" d="m148.7,450.59c17.22-13.39,27.12-33.07,29.64-54.52.39-3.34-5.24-4.1-5.89-.8-1.98,9.92-3.73,19.9-4.79,29.97-.68,6.48-1.36,12.77,1.45,18.84,1.24,2.68,2.66,6.94,5.94,7.76,2.73.68,5.08-1.32,6.77-3.2,4.3-4.78,7.51-10.77,10.72-16.31l-5.59-1.51c.36,4.99-.33,17.34,5.97,18.9,4.57,1.13,10.6-2.31,14.05-4.95,4.18-3.2,7.01-7.41,8.81-12.31h-5.79c1.5,8.32,6.05,15.08,14.14,18.16,7.66,2.91,17.15,2.71,24.96.44,3.7-1.07,2.13-6.87-1.6-5.79-5.95,1.73-12.93,2-18.94.47-7.58-1.93-11.43-7.45-12.77-14.88-.57-3.18-4.87-2.5-5.79,0-1.41,3.85-3.86,7.21-7.21,9.6-1.67,1.19-6.78,4.4-8.25,2.92-1.1-1.1-.97-5.83-1.13-7.34-.18-1.73-.33-3.47-.46-5.21-.21-2.85-4.02-4.23-5.59-1.51-2.33,4.02-4.73,8.02-7.37,11.85-.75,1.09-1.61,2.82-2.7,3.59-1.18.83.16,1.93-1.4-.52s-2.7-5.3-2.85-8.21c-.66-12.89,2.7-26.61,5.2-39.14l-5.89-.8c-2.34,19.91-12,37.92-27.89,50.28-3.04,2.37,1.23,6.59,4.24,4.24h0Z"/>
      <circle class="cls-2" cx="234.01" cy="278.12" r="226.6"/>
      <path class="cls-6" d="m267.08,41.44l-26.43-2.4L250.79,1.74l26.43,2.4-2.22,8.08-16.95-1.54-1.86,7,14,1.27-2.22,8.08-14-1.27-1.61,6.06,16.95,1.54-2.22,8.08Z"/>
      <path class="cls-6" d="m295.34,47.37l2.34-7.97-8.56-2.16-4.54,7.41-9.79-2.47,22.48-33.58,16.91,4.26-9.1,36.96-9.74-2.46Zm4.94-28.46l-7.33,12,6.71,1.69,3.85-12.88-3.23-.81Z"/>
      <path class="cls-6" d="m338.05,62.95l-25.61-10.95,4.6-7,.05.02,27.29-11.78-15.41-6.59,4.6-7,25.66,10.98-4.6,7-27.29,11.78,15.31,6.55-4.6,7Z"/>
      <path class="cls-6" d="m375.95,56.22l14.68-6.57,8.06,5.06-26.24,11.17-9.98,11.02-8.1-5.09,9.98-11.02,5.65-24.1,8.55,5.37-3.62,13.52,1.03.65Z"/>
      <path class="cls-6" d="m435.28,88.08c2.82,2.86,4.19,5.52,4.12,7.96-.07,1.84-.83,3.48-2.28,4.92-.5.5-1.08.96-1.73,1.41l-3.46,2.36c-1.93,1.31-3.76,2.08-5.49,2.33-1.73.25-3.26.13-4.58-.35l-7.63,14.26-7.49-7.61,7.02-13.14-2.3-2.34-11.65,8.43-7.12-7.23,31.83-21.91,10.75,10.93Zm-8.21,3.41l-2.78-2.83-7.52,5.47,2.6,2.64c1.31,1.33,2.57,1.97,3.78,1.92,1.21-.05,2.34-.6,3.4-1.64,2.03-2,2.21-3.86.53-5.56Z"/>
      <path class="cls-6" d="m434.85,148.59l-15.43-21.59,34.86-16.67,15.43,21.59-7.57,3.59-9.9-13.85-6.51,3.16,8.18,11.44-7.57,3.59-8.18-11.44-5.65,2.74,9.9,13.85-7.57,3.59Z"/>
      <path class="cls-6" d="m458.74,167.84l-2.82-5.62-11.27,3.35-4.27-8.5,37.03-11.07,7.23,14.41c1.79,3.56,2.24,6.51,1.36,8.84-.71,1.73-2.04,3.09-3.99,4.07-.66.33-1.39.62-2.17.85l-5.81,1.73c-2.85.84-5.7.53-8.53-.92-2.84-1.45-5.09-3.83-6.75-7.14Zm17.04-6.71l-2.13-4.25-9.71,2.92,2.11,4.21c1.3,2.58,3.2,3.5,5.7,2.76l2.1-.64c.31-.08.71-.24,1.18-.47.47-.24.87-.73,1.2-1.49.33-.76.18-1.77-.45-3.03Z"/>
      <path class="cls-6" d="m499.72,199.08c2.54,8.1.49,13.19-6.13,15.27-1.11.35-2.34.6-3.69.77l-10.64,1.39c-4.93.66-8.94,0-12.03-1.99-3.1-1.99-5.41-5.42-6.93-10.29-1.53-4.88-1.46-8.63.19-11.25,1.14-1.8,3.07-3.12,5.79-3.97,1.21-.38,2.58-.66,4.11-.84l10.64-1.39c9.51-1.24,15.74,2.86,18.7,12.31Zm-31.19,4.06c.53,1.68,1.38,2.89,2.57,3.63,1.19.74,3.03.94,5.51.6l10.22-1.32c.7-.11,1.33-.25,1.86-.42,2.72-.85,3.65-2.66,2.79-5.42-1.15-3.44-3.77-4.9-7.84-4.36l-10.22,1.32c-.88.13-1.78.34-2.69.62-2.35.74-3.09,2.52-2.2,5.34Z"/>
      <path class="cls-6" d="m508.84,244.88c.56,3.98.09,6.93-1.42,8.85-1.15,1.44-2.74,2.31-4.76,2.59-.7.1-1.44.13-2.23.1l-4.19-.16c-2.33-.1-4.26-.57-5.8-1.4-1.54-.83-2.7-1.84-3.47-3.01l-14.61,6.92-1.49-10.57,13.46-6.38-.46-3.25-14.38-.16-1.42-10.05,38.62,1.34,2.14,15.18Zm-8.63-2.15l-.55-3.93-9.3-.08.52,3.66c.26,1.85.89,3.11,1.89,3.79,1,.68,2.24.91,3.7.71,2.83-.4,4.07-1.78,3.74-4.16Z"/>
      <path class="cls-6" d="m502,304.5l.29-13-29.69-5.9.21-9.56,29.69,5.9.29-13.05,8.21,1.66-.79,35.62-8.21-1.66Z"/>
    </g>
  </g>
</svg>