<?xml version="1.0" standalone="no"?>
<!DOCTYPE svg PUBLIC "-//W3C//DTD SVG 20010904//EN"
 "http://www.w3.org/TR/2001/REC-SVG-20010904/DTD/svg10.dtd">
<svg version="1.0" xmlns="http://www.w3.org/2000/svg"
 width="8000.000000pt" height="4500.000000pt" viewBox="0 0 8000.000000 4500.000000"
 preserveAspectRatio="xMidYMid meet">

<g transform="translate(0.000000,4500.000000) scale(0.100000,-0.100000)"
fill="#000000" stroke="none">
<path d="M39300 41735 c0 -3 -174 -645 -386 -1426 -212 -781 -384 -1422 -382
-1423 4 -4 1916 -177 1977 -179 l44 -2 84 304 c46 167 82 305 80 307 -2 2
-289 29 -638 60 -349 32 -638 61 -643 65 -9 8 99 435 113 452 4 4 245 -15 537
-41 291 -27 530 -48 532 -47 6 5 170 610 166 614 -2 2 -241 26 -530 52 -290
26 -528 50 -531 52 -2 3 27 121 65 263 62 232 71 259 91 262 12 2 303 -22 647
-53 344 -32 627 -55 630 -53 7 8 164 581 164 601 0 10 -7 17 -18 17 -10 0
-463 41 -1007 90 -544 50 -990 90 -992 90 -2 0 -3 -2 -3 -5z"/>
<path d="M42010 39945 c-465 -696 -851 -1273 -858 -1284 -12 -17 8 -23 355
-110 203 -51 372 -93 376 -94 5 -1 84 121 176 271 92 150 172 277 177 282 7 7
640 -142 652 -155 2 -2 -35 -135 -82 -297 -47 -161 -86 -297 -86 -303 0 -12
729 -199 738 -190 7 6 701 2818 698 2822 -5 5 -1273 323 -1287 323 -8 -1 -394
-570 -859 -1265z m1215 446 c95 -24 110 -30 107 -47 -4 -22 -283 -958 -287
-962 -5 -5 -505 123 -505 130 0 6 486 807 538 886 18 27 14 27 147 -7z"/>
<path d="M45474 40114 c-93 -141 -172 -263 -176 -270 -6 -9 153 -81 573 -260
319 -136 582 -250 584 -254 2 -3 -465 -208 -1039 -455 l-1042 -450 -173 -263
c-95 -145 -169 -268 -165 -272 5 -5 446 -195 979 -423 l970 -415 176 266 c97
147 174 270 170 273 -3 3 -264 116 -578 250 -315 134 -573 246 -573 249 0 3
467 207 1038 454 l1038 448 172 261 c94 144 173 266 174 270 2 6 -1447 633
-1948 843 -6 3 -87 -111 -180 -252z"/>
<path d="M48426 39043 c-3 -10 -100 -422 -215 -916 -116 -494 -216 -906 -223
-915 -7 -10 -177 -199 -378 -421 -201 -221 -365 -407 -365 -413 0 -12 593
-388 610 -387 6 0 177 185 380 411 204 225 379 416 390 424 11 7 465 203 1010
434 544 232 991 422 992 423 2 3 -591 376 -609 382 -7 3 -264 -107 -572 -245
l-558 -250 -37 22 c-20 12 -37 22 -39 24 -2 1 58 229 133 506 74 278 135 512
135 521 0 9 -129 96 -320 216 -176 110 -322 201 -324 201 -3 0 -7 -8 -10 -17z"/>
<path d="M37695 38154 c-2434 -49 -4745 -571 -6965 -1574 -261 -118 -894 -436
-1155 -580 -1831 -1011 -3433 -2299 -4789 -3850 -1220 -1394 -2208 -2962
-2933 -4654 -784 -1827 -1249 -3784 -1377 -5786 -50 -775 -47 -1626 9 -2415
252 -3536 1578 -6918 3804 -9700 840 -1049 1839 -2038 2892 -2862 2792 -2186
6148 -3469 9669 -3698 722 -46 1567 -48 2265 -5 806 51 1584 152 2377 310
4823 962 9050 3945 11603 8189 1952 3245 2794 7023 2414 10826 -299 2994
-1370 5864 -3111 8338 -1082 1537 -2446 2931 -3956 4041 -2834 2085 -6169
3259 -9677 3405 -262 11 -846 19 -1070 15z m850 -464 c1573 -52 3054 -298
4525 -750 856 -263 1787 -635 2535 -1013 l190 -96 -165 0 c-91 0 -2739 8
-5884 18 l-5719 19 -1152 -1156 c-633 -636 -2237 -2250 -3565 -3585 l-2415
-2428 -5 -10565 -5 -10565 -140 122 c-1010 883 -1976 1958 -2742 3049 -1744
2488 -2783 5341 -3043 8360 -70 818 -80 1809 -25 2630 308 4591 2438 8836
5944 11847 2486 2135 5533 3510 8771 3958 967 133 1953 186 2895 155z m9120
-2966 l190 -131 43 -79 c23 -43 53 -115 67 -159 53 -171 53 -174 64 -1705 6
-784 13 -1632 15 -1885 4 -428 -4 -1795 -20 -3370 -6 -596 -5 -668 9 -655 8 8
267 421 576 917 l561 902 2 2503 3 2502 160 -141 c488 -428 1042 -980 1480
-1473 2032 -2286 3402 -5038 4000 -8035 129 -651 233 -1422 280 -2080 53 -764
59 -1589 15 -2300 -134 -2155 -651 -4208 -1547 -6144 -995 -2152 -2457 -4107
-4243 -5676 l-145 -127 -5 5563 -5 5564 -572 -912 -573 -912 -2 -5008 -3
-5008 -32 -68 c-64 -135 -204 -235 -403 -289 l-85 -23 -9498 -2 -9499 -3 -77
40 c-216 113 -376 321 -449 585 l-27 100 -3 9618 -2 9617 3549 0 c2386 0 3582
3 3650 10 354 37 648 209 877 512 140 186 225 352 290 566 l34 113 0 3605 0
3604 5568 -2 5567 -3 190 -131z m-1755 -29346 c-52 -32 -590 -294 -795 -388
-2755 -1254 -5774 -1750 -8820 -1449 -1731 171 -3457 618 -5055 1309 -328 142
-508 226 -850 396 l-305 153 7930 0 7930 1 -35 -22z"/>
<path d="M51075 29653 c-147 -31 -298 -117 -377 -214 -80 -98 -1352 -2298
-2200 -3804 -2430 -4317 -4270 -7907 -5301 -10345 -565 -1336 -893 -2328 -998
-3020 -30 -198 -33 -526 -6 -645 37 -160 111 -271 215 -322 48 -24 69 -28 137
-28 118 1 224 41 390 149 890 578 2546 2911 4882 6876 1351 2293 3002 5270
4585 8270 496 939 719 1373 743 1443 36 108 49 237 35 350 -48 397 -353 737
-918 1025 -267 136 -529 230 -746 267 -114 19 -347 19 -441 -2z"/>
<path d="M43975 9546 c-315 -53 -574 -185 -795 -406 -202 -201 -327 -432 -392
-721 -30 -137 -33 -415 -5 -552 71 -353 269 -667 556 -882 333 -251 772 -339
1187 -240 434 103 804 418 978 832 79 187 110 342 110 553 0 181 -18 294 -70
450 -163 486 -549 833 -1059 951 -117 26 -392 35 -510 15z"/>
<path d="M51390 35129 c-663 -457 -1208 -833 -1212 -837 -3 -4 116 -132 265
-284 l272 -278 445 324 445 324 89 -88 89 -88 -267 -501 c-148 -275 -266 -505
-264 -509 1 -5 130 -138 284 -296 l282 -287 29 53 c16 29 148 275 293 546 169
317 268 491 276 488 49 -19 149 -28 257 -24 103 4 137 10 217 37 52 18 124 48
160 68 107 59 458 303 515 358 164 158 219 368 151 570 -33 95 -68 158 -146
264 -61 82 -946 991 -965 990 -5 0 -552 -374 -1215 -830z m1468 -339 c36 -61
37 -144 3 -214 -35 -71 -139 -177 -213 -216 -51 -28 -77 -34 -140 -38 -119 -7
-174 24 -350 196 -76 74 -138 138 -138 143 0 4 127 100 282 213 l283 206 123
-122 c68 -68 135 -143 150 -168z"/>
<path d="M53550 32789 c-723 -347 -1319 -634 -1323 -638 -9 -9 1160 -1651
1174 -1651 17 0 569 265 569 273 0 5 -169 244 -375 533 l-374 524 212 103
c117 57 215 102 218 101 4 -2 145 -197 314 -434 169 -236 312 -430 317 -430
19 0 568 264 568 273 0 5 -136 198 -301 430 -166 232 -302 427 -303 434 -1 11
459 243 481 243 4 0 177 -237 383 -525 206 -289 377 -525 381 -525 4 0 121 54
260 121 140 67 268 127 286 135 l32 14 -587 822 c-323 453 -594 824 -602 825
-8 1 -607 -282 -1330 -628z"/>
<path d="M55870 30461 c-415 -125 -1046 -314 -1402 -420 l-647 -194 162 -323
c89 -178 167 -324 172 -324 8 0 726 211 837 246 14 4 41 -43 143 -245 138
-276 215 -398 314 -504 127 -136 311 -249 481 -297 95 -27 263 -37 356 -21
106 18 630 177 710 216 259 125 381 338 345 602 -22 161 -64 260 -380 891
-231 463 -305 602 -319 601 -9 -1 -357 -103 -772 -228z m593 -790 c130 -257
140 -315 77 -414 -35 -55 -74 -77 -225 -125 -147 -46 -259 -54 -332 -22 -93
39 -148 111 -258 329 -53 106 -94 195 -92 197 3 4 715 222 729 223 3 1 49 -84
101 -188z"/>
<path d="M57035 27584 c-22 -3 -265 -34 -540 -69 -581 -76 -681 -97 -853 -181
-96 -47 -126 -67 -192 -133 -63 -62 -87 -94 -119 -162 -44 -91 -71 -215 -71
-323 0 -206 78 -515 190 -752 141 -301 333 -496 590 -601 262 -107 475 -109
1190 -14 503 67 564 78 685 118 277 90 443 252 506 490 16 60 21 109 21 213 0
163 -23 293 -88 489 -172 523 -473 821 -916 906 -82 16 -326 27 -403 19z m368
-719 c174 -45 297 -178 342 -367 19 -80 19 -112 -1 -177 -28 -96 -123 -169
-269 -206 -113 -28 -912 -128 -1035 -129 -199 -1 -301 48 -399 192 -39 56 -83
191 -88 272 -7 94 19 163 80 215 82 70 164 89 702 160 430 57 572 65 668 40z"/>
<path d="M55945 24363 c3 -15 28 -187 55 -382 27 -195 52 -356 55 -359 3 -3
246 -8 539 -10 294 -3 540 -8 547 -12 7 -5 19 -58 29 -125 l17 -116 -26 -13
c-14 -8 -242 -116 -506 -241 -264 -124 -484 -231 -489 -235 -8 -8 97 -796 107
-806 2 -3 246 111 543 251 296 141 548 258 559 260 15 4 28 -6 50 -36 44 -61
156 -144 259 -194 157 -75 259 -91 624 -101 279 -8 350 1 472 59 86 40 186
139 228 227 57 117 67 174 66 375 -1 170 -6 212 -87 774 -47 326 -90 597 -95
600 -6 4 -644 28 -1419 54 -774 26 -1436 50 -1470 53 l-63 6 5 -29z m2415
-777 c0 -2 11 -82 25 -178 27 -182 26 -227 -5 -288 -40 -78 -131 -130 -262
-150 -138 -22 -253 13 -332 101 -58 65 -81 134 -111 342 -14 93 -25 171 -25
173 0 2 160 4 355 4 195 0 355 -2 355 -4z"/>
<path d="M58596 21073 c-3 -115 -9 -337 -12 -495 -5 -203 -10 -288 -18 -288
-6 0 -510 99 -1120 220 -610 121 -1118 220 -1128 220 -17 0 -18 -11 -18 -132
0 -73 -3 -237 -7 -364 l-6 -231 1127 -223 c620 -124 1132 -227 1138 -231 7 -5
7 -149 -1 -494 -7 -268 -8 -491 -4 -496 8 -7 614 -131 619 -126 1 1 14 529 28
1172 14 644 28 1256 32 1361 l6 190 -303 62 c-167 34 -309 62 -315 62 -8 0
-13 -66 -18 -207z"/>
</g>
</svg>
